<?xml version="1.0"?>
<svg xmlns="http://www.w3.org/2000/svg" xmlns:xlink="http://www.w3.org/1999/xlink" id="Gradient" viewBox="0 0 512 512" width="512" height="512"><defs><linearGradient id="linear-gradient" x1="256" y1="496" x2="256" y2="16" gradientUnits="userSpaceOnUse"><stop offset="0" stop-color="#12c2e9"/><stop offset="0.5" stop-color="#c471ed"/><stop offset="1" stop-color="#f64f59"/></linearGradient></defs><path d="M256,248a48,48,0,1,0-48-48A48.055,48.055,0,0,0,256,248Zm0-80a32,32,0,1,1-32,32A32.036,32.036,0,0,1,256,168Zm-8,32V184a8,8,0,0,1,16,0v8a8,8,0,0,1,0,16h-8A8,8,0,0,1,248,200Zm72,104V272a8,8,0,0,0-8-8H200a8,8,0,0,0-8,8v32a8,8,0,0,0,8,8H312A8,8,0,0,0,320,304Zm-16-8H208V280h96ZM72,264h64a8,8,0,0,0,0-16V192a8,8,0,0,0-8-8H80a8,8,0,0,0-8,8v56a8,8,0,0,0,0,16Zm16-64h32v48H88Zm48,144V288a8,8,0,0,0-8-8H80a8,8,0,0,0-8,8v56a8,8,0,0,0,0,16h64a8,8,0,0,0,0-16ZM88,296h32v48H88Zm48,144V384a8,8,0,0,0-8-8H80a8,8,0,0,0-8,8v56a8,8,0,0,0,0,16h64a8,8,0,0,0,0-16ZM88,392h32v48H88ZM376,264h64a8,8,0,0,0,0-16V192a8,8,0,0,0-8-8H384a8,8,0,0,0-8,8v56a8,8,0,0,0,0,16Zm16-64h32v48H392ZM376,360h64a8,8,0,0,0,0-16V288a8,8,0,0,0-8-8H384a8,8,0,0,0-8,8v56a8,8,0,0,0,0,16Zm16-64h32v48H392ZM376,456h64a8,8,0,0,0,0-16V384a8,8,0,0,0-8-8H384a8,8,0,0,0-8,8v56a8,8,0,0,0,0,16Zm16-64h32v48H392Zm96-232a8,8,0,0,0,0-16H346.6L264,83.926V65.444l38.685,6.447A8,8,0,0,0,312,64V32a8,8,0,0,0-6.685-7.891l-48-8v.008A7.954,7.954,0,0,0,248,24V83.926L165.4,144H24a8,8,0,0,0,0,16h8V480H24a8,8,0,0,0,0,16H488a8,8,0,0,0,0-16h-8V160ZM248,480H216V392a40.067,40.067,0,0,1,32-39.195Zm16-127.195A40.067,40.067,0,0,1,296,392v88H264ZM256,336a56.064,56.064,0,0,0-56,56v88H176V156.074l80-58.182,80,58.182V480H312V392A56.064,56.064,0,0,0,256,336ZM296,54.556l-32-5.333V33.444l32,5.333ZM48,160H160V480H48ZM464,480H352V160H464Z" style="fill:url(#linear-gradient)"/></svg>
